<?xml version="1.0" encoding="utf-8"?>
<!-- Generator: Adobe Illustrator 25.2.0, SVG Export Plug-In . SVG Version: 6.00 Build 0)  -->
<svg version="1.1" id="Layer_1" xmlns="http://www.w3.org/2000/svg" xmlns:xlink="http://www.w3.org/1999/xlink" x="0px" y="0px"
	 viewBox="0 0 512 512" style="enable-background:new 0 0 512 512;" xml:space="preserve">
<style type="text/css">
	.st0{fill:#FFFFFF;}
</style>
<path class="st0" d="M492,98.9C473.6,77,439.4,68,374.3,68H137.7C71.1,68,36.4,77.5,18,100.9C0,123.7,0,157.3,0,203.8v88.6
	c0,90.1,21.3,135.8,137.7,135.8h236.6c56.5,0,87.8-7.9,108.1-27.3c20.8-19.9,29.6-52.3,29.6-108.5v-88.6
	C512,154.8,510.6,121,492,98.9z M328.7,260.4l-107.4,56.1c-2.4,1.3-5,1.9-7.6,1.9c-3,0-5.9-0.8-8.6-2.4c-4.9-3-8-8.4-8-14.1V190
	c0-5.8,3-11.1,7.9-14.1c4.9-3,11.1-3.2,16.2-0.5l107.4,55.8c5.5,2.8,8.9,8.5,8.9,14.6C337.6,251.9,334.2,257.6,328.7,260.4z"/>
</svg>
